<mxfile host="app.diagrams.net" modified="2022-05-04T12:56:20.560Z" agent="5.0 (Macintosh; Intel Mac OS X 10_15_7) AppleWebKit/537.36 (KHTML, like Gecko) Chrome/100.0.4896.127 Safari/537.36" etag="3egnSG3ZwcCgiTbpiRhT" version="17.5.0" type="github">
  <diagram id="CyJgObJi3Y4IKMW2HgQD" name="Page-1">
    <mxGraphModel dx="3201" dy="1180" grid="1" gridSize="10" guides="1" tooltips="1" connect="1" arrows="1" fold="1" page="1" pageScale="1" pageWidth="850" pageHeight="1100" math="0" shadow="0">
      <root>
        <mxCell id="0" />
        <mxCell id="1" parent="0" />
        <mxCell id="6IXAWy9S-mfrVJF5mJvr-1" value="" style="ellipse;html=1;shape=startState;fillColor=#000000;strokeColor=#000000;" vertex="1" parent="1">
          <mxGeometry x="173.75" y="190" width="30" height="30" as="geometry" />
        </mxCell>
        <mxCell id="6IXAWy9S-mfrVJF5mJvr-2" value="CU Food Order" style="text;html=1;strokeColor=none;fillColor=none;align=center;verticalAlign=middle;whiteSpace=wrap;rounded=0;" vertex="1" parent="1">
          <mxGeometry x="143.75" y="160" width="90" height="30" as="geometry" />
        </mxCell>
        <mxCell id="6IXAWy9S-mfrVJF5mJvr-3" value="Admin Login" style="rounded=1;whiteSpace=wrap;html=1;strokeColor=#000000;fillColor=#FFFFFF;" vertex="1" parent="1">
          <mxGeometry x="143.75" y="240" width="90" height="30" as="geometry" />
        </mxCell>
        <mxCell id="6IXAWy9S-mfrVJF5mJvr-4" value="" style="rhombus;whiteSpace=wrap;html=1;strokeColor=#000000;" vertex="1" parent="1">
          <mxGeometry x="178.75" y="300" width="20" height="20" as="geometry" />
        </mxCell>
        <mxCell id="6IXAWy9S-mfrVJF5mJvr-5" value="" style="endArrow=classic;html=1;rounded=0;strokeColor=#000000;exitX=0.5;exitY=1;exitDx=0;exitDy=0;" edge="1" parent="1" source="6IXAWy9S-mfrVJF5mJvr-3" target="6IXAWy9S-mfrVJF5mJvr-4">
          <mxGeometry width="50" height="50" relative="1" as="geometry">
            <mxPoint x="288.75" y="260" as="sourcePoint" />
            <mxPoint x="338.75" y="210" as="targetPoint" />
          </mxGeometry>
        </mxCell>
        <mxCell id="6IXAWy9S-mfrVJF5mJvr-6" value="" style="endArrow=classic;html=1;rounded=0;strokeColor=#000000;exitX=0.5;exitY=1;exitDx=0;exitDy=0;" edge="1" parent="1">
          <mxGeometry width="50" height="50" relative="1" as="geometry">
            <mxPoint x="188.75" y="320" as="sourcePoint" />
            <mxPoint x="188.75" y="380" as="targetPoint" />
          </mxGeometry>
        </mxCell>
        <mxCell id="6IXAWy9S-mfrVJF5mJvr-7" value="[the type of user is admin]" style="text;html=1;strokeColor=none;fillColor=#FFFFFF;align=center;verticalAlign=middle;whiteSpace=wrap;rounded=0;" vertex="1" parent="1">
          <mxGeometry x="143.75" y="332" width="90" height="20" as="geometry" />
        </mxCell>
        <mxCell id="6IXAWy9S-mfrVJF5mJvr-8" value="Logged in as&lt;br&gt;a Admin" style="rounded=1;whiteSpace=wrap;html=1;strokeColor=#000000;fillColor=#FFFFFF;" vertex="1" parent="1">
          <mxGeometry x="143.75" y="380" width="90" height="30" as="geometry" />
        </mxCell>
        <mxCell id="6IXAWy9S-mfrVJF5mJvr-9" value="" style="endArrow=classic;html=1;rounded=0;strokeColor=#000000;" edge="1" parent="1">
          <mxGeometry width="50" height="50" relative="1" as="geometry">
            <mxPoint x="188.24999999999983" y="410" as="sourcePoint" />
            <mxPoint x="188.24999999999983" y="440" as="targetPoint" />
          </mxGeometry>
        </mxCell>
        <mxCell id="6IXAWy9S-mfrVJF5mJvr-10" value="" style="rounded=0;whiteSpace=wrap;html=1;strokeColor=#000000;fillColor=#000000;" vertex="1" parent="1">
          <mxGeometry x="-170" y="440" width="960" height="10" as="geometry" />
        </mxCell>
        <mxCell id="6IXAWy9S-mfrVJF5mJvr-11" value="Check Menu" style="rounded=1;whiteSpace=wrap;html=1;strokeColor=#000000;fillColor=#FFFFFF;" vertex="1" parent="1">
          <mxGeometry x="325" y="470" width="100" height="40" as="geometry" />
        </mxCell>
        <mxCell id="6IXAWy9S-mfrVJF5mJvr-16" value="" style="rounded=0;whiteSpace=wrap;html=1;strokeColor=#000000;fillColor=#000000;" vertex="1" parent="1">
          <mxGeometry x="-170" y="1000" width="1140" height="10" as="geometry" />
        </mxCell>
        <mxCell id="6IXAWy9S-mfrVJF5mJvr-17" value="Logout" style="rounded=1;whiteSpace=wrap;html=1;strokeColor=#000000;fillColor=#FFFFFF;" vertex="1" parent="1">
          <mxGeometry x="120" y="1040" width="160" height="40" as="geometry" />
        </mxCell>
        <mxCell id="6IXAWy9S-mfrVJF5mJvr-18" value="" style="ellipse;html=1;shape=endState;fillColor=#000000;strokeColor=#000000;" vertex="1" parent="1">
          <mxGeometry x="185" y="1110" width="30" height="30" as="geometry" />
        </mxCell>
        <mxCell id="6IXAWy9S-mfrVJF5mJvr-19" value="" style="endArrow=classic;html=1;rounded=0;strokeColor=#000000;entryX=0.5;entryY=0;entryDx=0;entryDy=0;exitX=0.357;exitY=1;exitDx=0;exitDy=0;exitPerimeter=0;" edge="1" parent="1" source="6IXAWy9S-mfrVJF5mJvr-16" target="6IXAWy9S-mfrVJF5mJvr-17">
          <mxGeometry width="50" height="50" relative="1" as="geometry">
            <mxPoint x="420" y="1050" as="sourcePoint" />
            <mxPoint x="470" y="1000" as="targetPoint" />
          </mxGeometry>
        </mxCell>
        <mxCell id="6IXAWy9S-mfrVJF5mJvr-20" value="" style="endArrow=classic;html=1;rounded=0;strokeColor=#000000;exitX=0.5;exitY=1;exitDx=0;exitDy=0;entryX=0.5;entryY=0;entryDx=0;entryDy=0;" edge="1" parent="1">
          <mxGeometry width="50" height="50" relative="1" as="geometry">
            <mxPoint x="199.71000000000004" y="1080" as="sourcePoint" />
            <mxPoint x="199.71000000000004" y="1110" as="targetPoint" />
          </mxGeometry>
        </mxCell>
        <mxCell id="6IXAWy9S-mfrVJF5mJvr-21" value="" style="endArrow=classic;html=1;rounded=0;strokeColor=#000000;entryX=0.5;entryY=0;entryDx=0;entryDy=0;" edge="1" parent="1" source="6IXAWy9S-mfrVJF5mJvr-10" target="6IXAWy9S-mfrVJF5mJvr-11">
          <mxGeometry width="50" height="50" relative="1" as="geometry">
            <mxPoint x="684.72" y="450" as="sourcePoint" />
            <mxPoint x="684.7200000000003" y="480" as="targetPoint" />
          </mxGeometry>
        </mxCell>
        <mxCell id="6IXAWy9S-mfrVJF5mJvr-27" value="Add Set" style="rounded=1;whiteSpace=wrap;html=1;strokeColor=#000000;fillColor=#FFFFFF;" vertex="1" parent="1">
          <mxGeometry x="40" y="530" width="90" height="40" as="geometry" />
        </mxCell>
        <mxCell id="6IXAWy9S-mfrVJF5mJvr-28" value="" style="endArrow=classic;html=1;rounded=0;strokeColor=#000000;exitX=0;exitY=1;exitDx=0;exitDy=0;entryX=0.5;entryY=0;entryDx=0;entryDy=0;" edge="1" parent="1" source="6IXAWy9S-mfrVJF5mJvr-11" target="6IXAWy9S-mfrVJF5mJvr-27">
          <mxGeometry width="50" height="50" relative="1" as="geometry">
            <mxPoint x="553.5" y="560" as="sourcePoint" />
            <mxPoint x="520" y="650" as="targetPoint" />
          </mxGeometry>
        </mxCell>
        <mxCell id="6IXAWy9S-mfrVJF5mJvr-29" value="Enter Name" style="rounded=1;whiteSpace=wrap;html=1;strokeColor=#000000;fillColor=#FFFFFF;" vertex="1" parent="1">
          <mxGeometry x="-30" y="610" width="110" height="40" as="geometry" />
        </mxCell>
        <mxCell id="6IXAWy9S-mfrVJF5mJvr-32" value="Select Dishes" style="rounded=1;whiteSpace=wrap;html=1;strokeColor=#000000;fillColor=#FFFFFF;" vertex="1" parent="1">
          <mxGeometry x="-50" y="780" width="95" height="40" as="geometry" />
        </mxCell>
        <mxCell id="6IXAWy9S-mfrVJF5mJvr-40" value="Edit Name" style="rounded=1;whiteSpace=wrap;html=1;strokeColor=#000000;fillColor=#FFFFFF;" vertex="1" parent="1">
          <mxGeometry x="123.75" y="610" width="110" height="40" as="geometry" />
        </mxCell>
        <mxCell id="6IXAWy9S-mfrVJF5mJvr-41" value="Check Order" style="rounded=1;whiteSpace=wrap;html=1;strokeColor=#000000;fillColor=#FFFFFF;" vertex="1" parent="1">
          <mxGeometry x="-150" y="480" width="90" height="40" as="geometry" />
        </mxCell>
        <mxCell id="6IXAWy9S-mfrVJF5mJvr-46" value="Click Finish Order" style="rounded=1;whiteSpace=wrap;html=1;strokeColor=#000000;fillColor=#FFFFFF;" vertex="1" parent="1">
          <mxGeometry x="-150" y="580" width="90" height="40" as="geometry" />
        </mxCell>
        <mxCell id="6IXAWy9S-mfrVJF5mJvr-49" value="" style="endArrow=classic;html=1;rounded=0;strokeColor=#000000;exitX=0.5;exitY=1;exitDx=0;exitDy=0;entryX=0.5;entryY=0;entryDx=0;entryDy=0;" edge="1" parent="1" source="6IXAWy9S-mfrVJF5mJvr-41" target="6IXAWy9S-mfrVJF5mJvr-46">
          <mxGeometry width="50" height="50" relative="1" as="geometry">
            <mxPoint x="275" y="530.7799999999999" as="sourcePoint" />
            <mxPoint x="315" y="620.78" as="targetPoint" />
          </mxGeometry>
        </mxCell>
        <mxCell id="6IXAWy9S-mfrVJF5mJvr-65" value="" style="endArrow=classic;html=1;rounded=0;strokeColor=#000000;entryX=0.5;entryY=0;entryDx=0;entryDy=0;exitX=0.25;exitY=1;exitDx=0;exitDy=0;" edge="1" parent="1" source="6IXAWy9S-mfrVJF5mJvr-10" target="6IXAWy9S-mfrVJF5mJvr-41">
          <mxGeometry width="50" height="50" relative="1" as="geometry">
            <mxPoint x="360" y="460" as="sourcePoint" />
            <mxPoint x="580" y="480.78" as="targetPoint" />
          </mxGeometry>
        </mxCell>
        <mxCell id="6IXAWy9S-mfrVJF5mJvr-97" value="" style="endArrow=classic;html=1;rounded=0;exitX=0.5;exitY=1;exitDx=0;exitDy=0;entryX=0.5;entryY=0;entryDx=0;entryDy=0;" edge="1" parent="1" source="6IXAWy9S-mfrVJF5mJvr-1" target="6IXAWy9S-mfrVJF5mJvr-3">
          <mxGeometry width="50" height="50" relative="1" as="geometry">
            <mxPoint x="283.75" y="240" as="sourcePoint" />
            <mxPoint x="333.75" y="190" as="targetPoint" />
          </mxGeometry>
        </mxCell>
        <mxCell id="6IXAWy9S-mfrVJF5mJvr-100" value="" style="endArrow=classic;html=1;rounded=0;exitX=0.5;exitY=1;exitDx=0;exitDy=0;" edge="1" parent="1" source="6IXAWy9S-mfrVJF5mJvr-46">
          <mxGeometry width="50" height="50" relative="1" as="geometry">
            <mxPoint x="330" y="735.24" as="sourcePoint" />
            <mxPoint x="-105" y="990" as="targetPoint" />
          </mxGeometry>
        </mxCell>
        <mxCell id="6IXAWy9S-mfrVJF5mJvr-114" value="" style="endArrow=classic;html=1;rounded=0;exitX=0.25;exitY=1;exitDx=0;exitDy=0;entryX=0.5;entryY=0;entryDx=0;entryDy=0;" edge="1" parent="1" source="6IXAWy9S-mfrVJF5mJvr-27" target="6IXAWy9S-mfrVJF5mJvr-29">
          <mxGeometry width="50" height="50" relative="1" as="geometry">
            <mxPoint x="180" y="740" as="sourcePoint" />
            <mxPoint x="230" y="690" as="targetPoint" />
          </mxGeometry>
        </mxCell>
        <mxCell id="6IXAWy9S-mfrVJF5mJvr-116" value="" style="endArrow=classic;html=1;rounded=0;exitX=0.25;exitY=1;exitDx=0;exitDy=0;entryX=0.5;entryY=0;entryDx=0;entryDy=0;" edge="1" parent="1" source="6IXAWy9S-mfrVJF5mJvr-29" target="6IXAWy9S-mfrVJF5mJvr-32">
          <mxGeometry width="50" height="50" relative="1" as="geometry">
            <mxPoint x="172.5" y="560" as="sourcePoint" />
            <mxPoint x="35" y="620" as="targetPoint" />
          </mxGeometry>
        </mxCell>
        <mxCell id="6IXAWy9S-mfrVJF5mJvr-117" value="" style="endArrow=classic;html=1;rounded=0;exitX=0.5;exitY=1;exitDx=0;exitDy=0;entryX=0.5;entryY=0;entryDx=0;entryDy=0;" edge="1" parent="1" source="6IXAWy9S-mfrVJF5mJvr-32" target="6IXAWy9S-mfrVJF5mJvr-121">
          <mxGeometry width="50" height="50" relative="1" as="geometry">
            <mxPoint x="-6.25" y="820" as="sourcePoint" />
            <mxPoint x="-10" y="950" as="targetPoint" />
          </mxGeometry>
        </mxCell>
        <mxCell id="6IXAWy9S-mfrVJF5mJvr-119" value="Edit Set" style="rounded=1;whiteSpace=wrap;html=1;strokeColor=#000000;fillColor=#FFFFFF;" vertex="1" parent="1">
          <mxGeometry x="133.75" y="530" width="90" height="40" as="geometry" />
        </mxCell>
        <mxCell id="6IXAWy9S-mfrVJF5mJvr-120" value="" style="endArrow=classic;html=1;rounded=0;strokeColor=#000000;exitX=0;exitY=1;exitDx=0;exitDy=0;entryX=0.5;entryY=0;entryDx=0;entryDy=0;" edge="1" parent="1" source="6IXAWy9S-mfrVJF5mJvr-11" target="6IXAWy9S-mfrVJF5mJvr-119">
          <mxGeometry width="50" height="50" relative="1" as="geometry">
            <mxPoint x="334.9999999999998" y="510" as="sourcePoint" />
            <mxPoint x="95.00000000000023" y="540" as="targetPoint" />
          </mxGeometry>
        </mxCell>
        <mxCell id="6IXAWy9S-mfrVJF5mJvr-121" value="Submit" style="rounded=1;whiteSpace=wrap;html=1;strokeColor=#000000;fillColor=#FFFFFF;" vertex="1" parent="1">
          <mxGeometry x="-40" y="870" width="70" height="40" as="geometry" />
        </mxCell>
        <mxCell id="6IXAWy9S-mfrVJF5mJvr-123" value="" style="endArrow=classic;html=1;rounded=0;exitX=0.5;exitY=1;exitDx=0;exitDy=0;entryX=0.5;entryY=0;entryDx=0;entryDy=0;" edge="1" parent="1" source="6IXAWy9S-mfrVJF5mJvr-119" target="6IXAWy9S-mfrVJF5mJvr-40">
          <mxGeometry width="50" height="50" relative="1" as="geometry">
            <mxPoint x="72.5" y="580" as="sourcePoint" />
            <mxPoint x="35" y="620" as="targetPoint" />
          </mxGeometry>
        </mxCell>
        <mxCell id="6IXAWy9S-mfrVJF5mJvr-124" value="Reselect Dishes" style="rounded=1;whiteSpace=wrap;html=1;strokeColor=#000000;fillColor=#FFFFFF;" vertex="1" parent="1">
          <mxGeometry x="127.5" y="780" width="102.5" height="40" as="geometry" />
        </mxCell>
        <mxCell id="6IXAWy9S-mfrVJF5mJvr-125" value="" style="endArrow=classic;html=1;rounded=0;exitX=0.5;exitY=1;exitDx=0;exitDy=0;entryX=0.5;entryY=0;entryDx=0;entryDy=0;" edge="1" parent="1" target="6IXAWy9S-mfrVJF5mJvr-124" source="6IXAWy9S-mfrVJF5mJvr-40">
          <mxGeometry width="50" height="50" relative="1" as="geometry">
            <mxPoint x="185" y="650" as="sourcePoint" />
            <mxPoint x="222.5" y="620" as="targetPoint" />
          </mxGeometry>
        </mxCell>
        <mxCell id="6IXAWy9S-mfrVJF5mJvr-126" value="" style="endArrow=classic;html=1;rounded=0;exitX=0.5;exitY=1;exitDx=0;exitDy=0;entryX=0.5;entryY=0;entryDx=0;entryDy=0;" edge="1" parent="1" source="6IXAWy9S-mfrVJF5mJvr-124" target="6IXAWy9S-mfrVJF5mJvr-128">
          <mxGeometry width="50" height="50" relative="1" as="geometry">
            <mxPoint x="181.25" y="820" as="sourcePoint" />
            <mxPoint x="177.5" y="950" as="targetPoint" />
          </mxGeometry>
        </mxCell>
        <mxCell id="6IXAWy9S-mfrVJF5mJvr-128" value="Submit" style="rounded=1;whiteSpace=wrap;html=1;strokeColor=#000000;fillColor=#FFFFFF;" vertex="1" parent="1">
          <mxGeometry x="142.5" y="870" width="72.5" height="40" as="geometry" />
        </mxCell>
        <mxCell id="6IXAWy9S-mfrVJF5mJvr-130" value="Delete Set" style="rounded=1;whiteSpace=wrap;html=1;strokeColor=#000000;fillColor=#FFFFFF;" vertex="1" parent="1">
          <mxGeometry x="233.75" y="530" width="90" height="40" as="geometry" />
        </mxCell>
        <mxCell id="6IXAWy9S-mfrVJF5mJvr-131" value="" style="endArrow=classic;html=1;rounded=0;strokeColor=#000000;exitX=0;exitY=1;exitDx=0;exitDy=0;entryX=0.5;entryY=0;entryDx=0;entryDy=0;" edge="1" parent="1" source="6IXAWy9S-mfrVJF5mJvr-11" target="6IXAWy9S-mfrVJF5mJvr-130">
          <mxGeometry width="50" height="50" relative="1" as="geometry">
            <mxPoint x="345" y="519.9999999999999" as="sourcePoint" />
            <mxPoint x="210" y="540" as="targetPoint" />
          </mxGeometry>
        </mxCell>
        <mxCell id="6IXAWy9S-mfrVJF5mJvr-132" value="" style="endArrow=classic;html=1;rounded=0;exitX=0.5;exitY=1;exitDx=0;exitDy=0;" edge="1" parent="1" source="6IXAWy9S-mfrVJF5mJvr-130">
          <mxGeometry width="50" height="50" relative="1" as="geometry">
            <mxPoint x="210" y="580" as="sourcePoint" />
            <mxPoint x="279" y="990" as="targetPoint" />
          </mxGeometry>
        </mxCell>
        <mxCell id="6IXAWy9S-mfrVJF5mJvr-133" value="" style="endArrow=classic;html=1;rounded=0;exitX=0.5;exitY=1;exitDx=0;exitDy=0;" edge="1" parent="1" source="6IXAWy9S-mfrVJF5mJvr-128">
          <mxGeometry width="50" height="50" relative="1" as="geometry">
            <mxPoint x="72.5" y="580" as="sourcePoint" />
            <mxPoint x="180" y="990" as="targetPoint" />
          </mxGeometry>
        </mxCell>
        <mxCell id="6IXAWy9S-mfrVJF5mJvr-134" value="" style="endArrow=classic;html=1;rounded=0;exitX=0.5;exitY=1;exitDx=0;exitDy=0;" edge="1" parent="1" source="6IXAWy9S-mfrVJF5mJvr-121">
          <mxGeometry width="50" height="50" relative="1" as="geometry">
            <mxPoint x="188.75" y="920" as="sourcePoint" />
            <mxPoint x="-5" y="990" as="targetPoint" />
          </mxGeometry>
        </mxCell>
        <mxCell id="6IXAWy9S-mfrVJF5mJvr-135" value="Add Type" style="rounded=1;whiteSpace=wrap;html=1;strokeColor=#000000;fillColor=#FFFFFF;" vertex="1" parent="1">
          <mxGeometry x="380" y="530" width="90" height="40" as="geometry" />
        </mxCell>
        <mxCell id="6IXAWy9S-mfrVJF5mJvr-136" value="Enter Name" style="rounded=1;whiteSpace=wrap;html=1;strokeColor=#000000;fillColor=#FFFFFF;" vertex="1" parent="1">
          <mxGeometry x="310" y="610" width="110" height="40" as="geometry" />
        </mxCell>
        <mxCell id="6IXAWy9S-mfrVJF5mJvr-137" value="Edit Name" style="rounded=1;whiteSpace=wrap;html=1;strokeColor=#000000;fillColor=#FFFFFF;" vertex="1" parent="1">
          <mxGeometry x="463.75" y="610" width="110" height="40" as="geometry" />
        </mxCell>
        <mxCell id="6IXAWy9S-mfrVJF5mJvr-138" value="" style="endArrow=classic;html=1;rounded=0;exitX=0.25;exitY=1;exitDx=0;exitDy=0;entryX=0.5;entryY=0;entryDx=0;entryDy=0;" edge="1" parent="1" source="6IXAWy9S-mfrVJF5mJvr-135" target="6IXAWy9S-mfrVJF5mJvr-136">
          <mxGeometry width="50" height="50" relative="1" as="geometry">
            <mxPoint x="520" y="740" as="sourcePoint" />
            <mxPoint x="570" y="690" as="targetPoint" />
          </mxGeometry>
        </mxCell>
        <mxCell id="6IXAWy9S-mfrVJF5mJvr-140" value="" style="endArrow=classic;html=1;rounded=0;exitX=0.5;exitY=1;exitDx=0;exitDy=0;entryX=0.5;entryY=0;entryDx=0;entryDy=0;" edge="1" parent="1" target="6IXAWy9S-mfrVJF5mJvr-142" source="6IXAWy9S-mfrVJF5mJvr-136">
          <mxGeometry width="50" height="50" relative="1" as="geometry">
            <mxPoint x="357.5" y="820" as="sourcePoint" />
            <mxPoint x="330" y="950" as="targetPoint" />
          </mxGeometry>
        </mxCell>
        <mxCell id="6IXAWy9S-mfrVJF5mJvr-141" value="Edit Type" style="rounded=1;whiteSpace=wrap;html=1;strokeColor=#000000;fillColor=#FFFFFF;" vertex="1" parent="1">
          <mxGeometry x="473.75" y="530" width="90" height="40" as="geometry" />
        </mxCell>
        <mxCell id="6IXAWy9S-mfrVJF5mJvr-142" value="Submit" style="rounded=1;whiteSpace=wrap;html=1;strokeColor=#000000;fillColor=#FFFFFF;" vertex="1" parent="1">
          <mxGeometry x="322.5" y="870" width="70" height="40" as="geometry" />
        </mxCell>
        <mxCell id="6IXAWy9S-mfrVJF5mJvr-143" value="" style="endArrow=classic;html=1;rounded=0;exitX=0.5;exitY=1;exitDx=0;exitDy=0;entryX=0.5;entryY=0;entryDx=0;entryDy=0;" edge="1" parent="1" source="6IXAWy9S-mfrVJF5mJvr-141" target="6IXAWy9S-mfrVJF5mJvr-137">
          <mxGeometry width="50" height="50" relative="1" as="geometry">
            <mxPoint x="412.5" y="580" as="sourcePoint" />
            <mxPoint x="375" y="620" as="targetPoint" />
          </mxGeometry>
        </mxCell>
        <mxCell id="6IXAWy9S-mfrVJF5mJvr-145" value="" style="endArrow=classic;html=1;rounded=0;exitX=0.5;exitY=1;exitDx=0;exitDy=0;entryX=0.5;entryY=0;entryDx=0;entryDy=0;" edge="1" parent="1" source="6IXAWy9S-mfrVJF5mJvr-137" target="6IXAWy9S-mfrVJF5mJvr-147">
          <mxGeometry width="50" height="50" relative="1" as="geometry">
            <mxPoint x="525" y="650" as="sourcePoint" />
            <mxPoint x="518.75" y="780" as="targetPoint" />
          </mxGeometry>
        </mxCell>
        <mxCell id="6IXAWy9S-mfrVJF5mJvr-147" value="Submit" style="rounded=1;whiteSpace=wrap;html=1;strokeColor=#000000;fillColor=#FFFFFF;" vertex="1" parent="1">
          <mxGeometry x="482.5" y="870" width="72.5" height="40" as="geometry" />
        </mxCell>
        <mxCell id="6IXAWy9S-mfrVJF5mJvr-148" value="Delete Type" style="rounded=1;whiteSpace=wrap;html=1;strokeColor=#000000;fillColor=#FFFFFF;" vertex="1" parent="1">
          <mxGeometry x="573.75" y="530" width="90" height="40" as="geometry" />
        </mxCell>
        <mxCell id="6IXAWy9S-mfrVJF5mJvr-149" value="" style="endArrow=classic;html=1;rounded=0;exitX=0.5;exitY=1;exitDx=0;exitDy=0;entryX=0.516;entryY=-0.5;entryDx=0;entryDy=0;entryPerimeter=0;" edge="1" parent="1" source="6IXAWy9S-mfrVJF5mJvr-148">
          <mxGeometry width="50" height="50" relative="1" as="geometry">
            <mxPoint x="550" y="580" as="sourcePoint" />
            <mxPoint x="614.6799999999998" y="995" as="targetPoint" />
          </mxGeometry>
        </mxCell>
        <mxCell id="6IXAWy9S-mfrVJF5mJvr-150" value="" style="endArrow=classic;html=1;rounded=0;exitX=0.5;exitY=1;exitDx=0;exitDy=0;entryX=0.437;entryY=-0.167;entryDx=0;entryDy=0;entryPerimeter=0;" edge="1" parent="1" source="6IXAWy9S-mfrVJF5mJvr-147">
          <mxGeometry width="50" height="50" relative="1" as="geometry">
            <mxPoint x="412.5" y="580" as="sourcePoint" />
            <mxPoint x="517.5100000000002" y="998.3299999999999" as="targetPoint" />
          </mxGeometry>
        </mxCell>
        <mxCell id="6IXAWy9S-mfrVJF5mJvr-151" value="" style="endArrow=classic;html=1;rounded=0;exitX=0.5;exitY=1;exitDx=0;exitDy=0;" edge="1" parent="1" source="6IXAWy9S-mfrVJF5mJvr-142">
          <mxGeometry width="50" height="50" relative="1" as="geometry">
            <mxPoint x="528.75" y="920" as="sourcePoint" />
            <mxPoint x="358" y="995" as="targetPoint" />
          </mxGeometry>
        </mxCell>
        <mxCell id="6IXAWy9S-mfrVJF5mJvr-155" value="" style="endArrow=classic;html=1;rounded=0;strokeColor=#000000;entryX=0.5;entryY=0;entryDx=0;entryDy=0;exitX=0.5;exitY=1;exitDx=0;exitDy=0;" edge="1" parent="1" source="6IXAWy9S-mfrVJF5mJvr-11" target="6IXAWy9S-mfrVJF5mJvr-135">
          <mxGeometry width="50" height="50" relative="1" as="geometry">
            <mxPoint x="420" y="510" as="sourcePoint" />
            <mxPoint x="288.75" y="540" as="targetPoint" />
          </mxGeometry>
        </mxCell>
        <mxCell id="6IXAWy9S-mfrVJF5mJvr-156" value="" style="endArrow=classic;html=1;rounded=0;strokeColor=#000000;exitX=0.5;exitY=1;exitDx=0;exitDy=0;entryX=0.5;entryY=0;entryDx=0;entryDy=0;" edge="1" parent="1" source="6IXAWy9S-mfrVJF5mJvr-11" target="6IXAWy9S-mfrVJF5mJvr-141">
          <mxGeometry width="50" height="50" relative="1" as="geometry">
            <mxPoint x="410" y="520" as="sourcePoint" />
            <mxPoint x="435" y="540" as="targetPoint" />
          </mxGeometry>
        </mxCell>
        <mxCell id="6IXAWy9S-mfrVJF5mJvr-157" value="" style="endArrow=classic;html=1;rounded=0;strokeColor=#000000;exitX=0.5;exitY=1;exitDx=0;exitDy=0;entryX=0.5;entryY=0;entryDx=0;entryDy=0;" edge="1" parent="1" source="6IXAWy9S-mfrVJF5mJvr-11" target="6IXAWy9S-mfrVJF5mJvr-148">
          <mxGeometry width="50" height="50" relative="1" as="geometry">
            <mxPoint x="435" y="520" as="sourcePoint" />
            <mxPoint x="528.75" y="540" as="targetPoint" />
          </mxGeometry>
        </mxCell>
        <mxCell id="6IXAWy9S-mfrVJF5mJvr-159" value="Add Menu" style="rounded=1;whiteSpace=wrap;html=1;strokeColor=#000000;fillColor=#FFFFFF;" vertex="1" parent="1">
          <mxGeometry x="700" y="530" width="90" height="40" as="geometry" />
        </mxCell>
        <mxCell id="6IXAWy9S-mfrVJF5mJvr-160" value="Enter Name" style="rounded=1;whiteSpace=wrap;html=1;strokeColor=#000000;fillColor=#FFFFFF;" vertex="1" parent="1">
          <mxGeometry x="630" y="610" width="110" height="40" as="geometry" />
        </mxCell>
        <mxCell id="6IXAWy9S-mfrVJF5mJvr-162" value="" style="endArrow=classic;html=1;rounded=0;exitX=0.25;exitY=1;exitDx=0;exitDy=0;entryX=0.5;entryY=0;entryDx=0;entryDy=0;" edge="1" parent="1" source="6IXAWy9S-mfrVJF5mJvr-159" target="6IXAWy9S-mfrVJF5mJvr-160">
          <mxGeometry width="50" height="50" relative="1" as="geometry">
            <mxPoint x="840" y="740" as="sourcePoint" />
            <mxPoint x="890" y="690" as="targetPoint" />
          </mxGeometry>
        </mxCell>
        <mxCell id="6IXAWy9S-mfrVJF5mJvr-164" value="Edit Menu" style="rounded=1;whiteSpace=wrap;html=1;strokeColor=#000000;fillColor=#FFFFFF;" vertex="1" parent="1">
          <mxGeometry x="793.75" y="530" width="90" height="40" as="geometry" />
        </mxCell>
        <mxCell id="6IXAWy9S-mfrVJF5mJvr-166" value="" style="endArrow=classic;html=1;rounded=0;exitX=0.5;exitY=1;exitDx=0;exitDy=0;entryX=0.5;entryY=0;entryDx=0;entryDy=0;" edge="1" parent="1" source="6IXAWy9S-mfrVJF5mJvr-164">
          <mxGeometry width="50" height="50" relative="1" as="geometry">
            <mxPoint x="732.5" y="580" as="sourcePoint" />
            <mxPoint x="838.75" y="610" as="targetPoint" />
          </mxGeometry>
        </mxCell>
        <mxCell id="6IXAWy9S-mfrVJF5mJvr-169" value="Delete Menu" style="rounded=1;whiteSpace=wrap;html=1;strokeColor=#000000;fillColor=#FFFFFF;" vertex="1" parent="1">
          <mxGeometry x="893.75" y="530" width="90" height="40" as="geometry" />
        </mxCell>
        <mxCell id="6IXAWy9S-mfrVJF5mJvr-170" value="" style="endArrow=classic;html=1;rounded=0;exitX=0.5;exitY=1;exitDx=0;exitDy=0;entryX=0.516;entryY=-0.5;entryDx=0;entryDy=0;entryPerimeter=0;" edge="1" parent="1" source="6IXAWy9S-mfrVJF5mJvr-169">
          <mxGeometry width="50" height="50" relative="1" as="geometry">
            <mxPoint x="870" y="580" as="sourcePoint" />
            <mxPoint x="934.6799999999998" y="994.9999999999998" as="targetPoint" />
          </mxGeometry>
        </mxCell>
        <mxCell id="6IXAWy9S-mfrVJF5mJvr-174" value="" style="endArrow=classic;html=1;rounded=0;strokeColor=#000000;exitX=1;exitY=1;exitDx=0;exitDy=0;entryX=0.5;entryY=0;entryDx=0;entryDy=0;" edge="1" parent="1" source="6IXAWy9S-mfrVJF5mJvr-11" target="6IXAWy9S-mfrVJF5mJvr-159">
          <mxGeometry width="50" height="50" relative="1" as="geometry">
            <mxPoint x="435" y="510.0000000000001" as="sourcePoint" />
            <mxPoint x="628.75" y="540.0000000000001" as="targetPoint" />
          </mxGeometry>
        </mxCell>
        <mxCell id="6IXAWy9S-mfrVJF5mJvr-175" value="" style="endArrow=classic;html=1;rounded=0;strokeColor=#000000;entryX=0.5;entryY=0;entryDx=0;entryDy=0;exitX=1;exitY=1;exitDx=0;exitDy=0;" edge="1" parent="1" source="6IXAWy9S-mfrVJF5mJvr-11" target="6IXAWy9S-mfrVJF5mJvr-164">
          <mxGeometry width="50" height="50" relative="1" as="geometry">
            <mxPoint x="460" y="470" as="sourcePoint" />
            <mxPoint x="755" y="540.0000000000001" as="targetPoint" />
          </mxGeometry>
        </mxCell>
        <mxCell id="6IXAWy9S-mfrVJF5mJvr-176" value="" style="endArrow=classic;html=1;rounded=0;strokeColor=#000000;entryX=0.5;entryY=0;entryDx=0;entryDy=0;exitX=1;exitY=1;exitDx=0;exitDy=0;" edge="1" parent="1" source="6IXAWy9S-mfrVJF5mJvr-11" target="6IXAWy9S-mfrVJF5mJvr-169">
          <mxGeometry width="50" height="50" relative="1" as="geometry">
            <mxPoint x="435" y="500.0000000000001" as="sourcePoint" />
            <mxPoint x="848.75" y="540.0000000000001" as="targetPoint" />
          </mxGeometry>
        </mxCell>
        <mxCell id="6IXAWy9S-mfrVJF5mJvr-177" value="Enter Price" style="rounded=1;whiteSpace=wrap;html=1;strokeColor=#000000;fillColor=#FFFFFF;" vertex="1" parent="1">
          <mxGeometry x="645" y="700" width="80" height="40" as="geometry" />
        </mxCell>
        <mxCell id="6IXAWy9S-mfrVJF5mJvr-178" value="" style="endArrow=classic;html=1;rounded=0;exitX=0.5;exitY=1;exitDx=0;exitDy=0;entryX=0.5;entryY=0;entryDx=0;entryDy=0;" edge="1" parent="1" source="6IXAWy9S-mfrVJF5mJvr-160" target="6IXAWy9S-mfrVJF5mJvr-177">
          <mxGeometry width="50" height="50" relative="1" as="geometry">
            <mxPoint x="732.5" y="580" as="sourcePoint" />
            <mxPoint x="695" y="620" as="targetPoint" />
          </mxGeometry>
        </mxCell>
        <mxCell id="6IXAWy9S-mfrVJF5mJvr-180" value="" style="endArrow=classic;html=1;rounded=0;exitX=0.5;exitY=1;exitDx=0;exitDy=0;entryX=0.5;entryY=0;entryDx=0;entryDy=0;" edge="1" parent="1" source="6IXAWy9S-mfrVJF5mJvr-177" target="6IXAWy9S-mfrVJF5mJvr-181">
          <mxGeometry width="50" height="50" relative="1" as="geometry">
            <mxPoint x="695" y="660" as="sourcePoint" />
            <mxPoint x="685" y="800" as="targetPoint" />
          </mxGeometry>
        </mxCell>
        <mxCell id="6IXAWy9S-mfrVJF5mJvr-181" value="Enter Ingredients" style="rounded=1;whiteSpace=wrap;html=1;strokeColor=#000000;fillColor=#FFFFFF;" vertex="1" parent="1">
          <mxGeometry x="632.5" y="770" width="105" height="40" as="geometry" />
        </mxCell>
        <mxCell id="6IXAWy9S-mfrVJF5mJvr-183" value="Upload Image" style="rounded=1;whiteSpace=wrap;html=1;strokeColor=#000000;fillColor=#FFFFFF;" vertex="1" parent="1">
          <mxGeometry x="645" y="840" width="80" height="40" as="geometry" />
        </mxCell>
        <mxCell id="6IXAWy9S-mfrVJF5mJvr-185" value="Edit Name" style="rounded=1;whiteSpace=wrap;html=1;strokeColor=#000000;fillColor=#FFFFFF;" vertex="1" parent="1">
          <mxGeometry x="760" y="607.05" width="110" height="40" as="geometry" />
        </mxCell>
        <mxCell id="6IXAWy9S-mfrVJF5mJvr-186" value="Edit Price" style="rounded=1;whiteSpace=wrap;html=1;strokeColor=#000000;fillColor=#FFFFFF;" vertex="1" parent="1">
          <mxGeometry x="775" y="697.05" width="80" height="40" as="geometry" />
        </mxCell>
        <mxCell id="6IXAWy9S-mfrVJF5mJvr-187" value="" style="endArrow=classic;html=1;rounded=0;exitX=0.5;exitY=1;exitDx=0;exitDy=0;entryX=0.5;entryY=0;entryDx=0;entryDy=0;" edge="1" parent="1" source="6IXAWy9S-mfrVJF5mJvr-185" target="6IXAWy9S-mfrVJF5mJvr-186">
          <mxGeometry width="50" height="50" relative="1" as="geometry">
            <mxPoint x="862.5" y="577.05" as="sourcePoint" />
            <mxPoint x="825" y="617.05" as="targetPoint" />
          </mxGeometry>
        </mxCell>
        <mxCell id="6IXAWy9S-mfrVJF5mJvr-188" value="" style="endArrow=classic;html=1;rounded=0;exitX=0.5;exitY=1;exitDx=0;exitDy=0;entryX=0.5;entryY=0;entryDx=0;entryDy=0;" edge="1" parent="1" source="6IXAWy9S-mfrVJF5mJvr-186" target="6IXAWy9S-mfrVJF5mJvr-189">
          <mxGeometry width="50" height="50" relative="1" as="geometry">
            <mxPoint x="825" y="657.05" as="sourcePoint" />
            <mxPoint x="815" y="797.05" as="targetPoint" />
          </mxGeometry>
        </mxCell>
        <mxCell id="6IXAWy9S-mfrVJF5mJvr-189" value="Edit Ingredients" style="rounded=1;whiteSpace=wrap;html=1;strokeColor=#000000;fillColor=#FFFFFF;" vertex="1" parent="1">
          <mxGeometry x="762.5" y="767.05" width="105" height="40" as="geometry" />
        </mxCell>
        <mxCell id="6IXAWy9S-mfrVJF5mJvr-191" value="reUpload Image" style="rounded=1;whiteSpace=wrap;html=1;strokeColor=#000000;fillColor=#FFFFFF;" vertex="1" parent="1">
          <mxGeometry x="767.5" y="840" width="95" height="40" as="geometry" />
        </mxCell>
        <mxCell id="6IXAWy9S-mfrVJF5mJvr-192" value="" style="endArrow=classic;html=1;rounded=0;exitX=0.5;exitY=1;exitDx=0;exitDy=0;entryX=0.5;entryY=0;entryDx=0;entryDy=0;" edge="1" parent="1" source="6IXAWy9S-mfrVJF5mJvr-181" target="6IXAWy9S-mfrVJF5mJvr-183">
          <mxGeometry width="50" height="50" relative="1" as="geometry">
            <mxPoint x="695" y="750.0000000000002" as="sourcePoint" />
            <mxPoint x="695" y="780" as="targetPoint" />
          </mxGeometry>
        </mxCell>
        <mxCell id="6IXAWy9S-mfrVJF5mJvr-193" value="" style="endArrow=classic;html=1;rounded=0;exitX=0.5;exitY=1;exitDx=0;exitDy=0;entryX=0.5;entryY=0;entryDx=0;entryDy=0;" edge="1" parent="1" source="6IXAWy9S-mfrVJF5mJvr-189" target="6IXAWy9S-mfrVJF5mJvr-191">
          <mxGeometry width="50" height="50" relative="1" as="geometry">
            <mxPoint x="695" y="820" as="sourcePoint" />
            <mxPoint x="695" y="850" as="targetPoint" />
          </mxGeometry>
        </mxCell>
        <mxCell id="6IXAWy9S-mfrVJF5mJvr-196" value="Submit" style="rounded=1;whiteSpace=wrap;html=1;strokeColor=#000000;fillColor=#FFFFFF;" vertex="1" parent="1">
          <mxGeometry x="648.75" y="900" width="72.5" height="40" as="geometry" />
        </mxCell>
        <mxCell id="6IXAWy9S-mfrVJF5mJvr-197" value="Submit" style="rounded=1;whiteSpace=wrap;html=1;strokeColor=#000000;fillColor=#FFFFFF;" vertex="1" parent="1">
          <mxGeometry x="778.75" y="900" width="72.5" height="40" as="geometry" />
        </mxCell>
        <mxCell id="6IXAWy9S-mfrVJF5mJvr-199" value="" style="endArrow=classic;html=1;rounded=0;exitX=0.5;exitY=1;exitDx=0;exitDy=0;entryX=0.5;entryY=0;entryDx=0;entryDy=0;" edge="1" parent="1" source="6IXAWy9S-mfrVJF5mJvr-183" target="6IXAWy9S-mfrVJF5mJvr-196">
          <mxGeometry width="50" height="50" relative="1" as="geometry">
            <mxPoint x="695" y="820" as="sourcePoint" />
            <mxPoint x="695" y="850" as="targetPoint" />
          </mxGeometry>
        </mxCell>
        <mxCell id="6IXAWy9S-mfrVJF5mJvr-200" value="" style="endArrow=classic;html=1;rounded=0;exitX=0.5;exitY=1;exitDx=0;exitDy=0;entryX=0.5;entryY=0;entryDx=0;entryDy=0;" edge="1" parent="1" source="6IXAWy9S-mfrVJF5mJvr-191" target="6IXAWy9S-mfrVJF5mJvr-197">
          <mxGeometry width="50" height="50" relative="1" as="geometry">
            <mxPoint x="695" y="890" as="sourcePoint" />
            <mxPoint x="695" y="910" as="targetPoint" />
          </mxGeometry>
        </mxCell>
        <mxCell id="6IXAWy9S-mfrVJF5mJvr-201" value="" style="endArrow=classic;html=1;rounded=0;exitX=0.5;exitY=1;exitDx=0;exitDy=0;entryX=0.75;entryY=-0.467;entryDx=0;entryDy=0;entryPerimeter=0;" edge="1" parent="1" source="6IXAWy9S-mfrVJF5mJvr-196" target="6IXAWy9S-mfrVJF5mJvr-16">
          <mxGeometry width="50" height="50" relative="1" as="geometry">
            <mxPoint x="695" y="890" as="sourcePoint" />
            <mxPoint x="685" y="990" as="targetPoint" />
          </mxGeometry>
        </mxCell>
        <mxCell id="6IXAWy9S-mfrVJF5mJvr-202" value="" style="endArrow=classic;html=1;rounded=0;exitX=0.5;exitY=1;exitDx=0;exitDy=0;entryX=0.864;entryY=-0.383;entryDx=0;entryDy=0;entryPerimeter=0;" edge="1" parent="1" source="6IXAWy9S-mfrVJF5mJvr-197" target="6IXAWy9S-mfrVJF5mJvr-16">
          <mxGeometry width="50" height="50" relative="1" as="geometry">
            <mxPoint x="695" y="950" as="sourcePoint" />
            <mxPoint x="694.6399999999999" y="1007.3199999999999" as="targetPoint" />
          </mxGeometry>
        </mxCell>
      </root>
    </mxGraphModel>
  </diagram>
</mxfile>
